<?xml version="1.0" standalone="no"?><!DOCTYPE svg PUBLIC "-//W3C//DTD SVG 1.1//EN" "http://www.w3.org/Graphics/SVG/1.1/DTD/svg11.dtd"><svg t="1598515256740" class="icon" viewBox="0 0 1024 1024" version="1.1" xmlns="http://www.w3.org/2000/svg" p-id="2916" width="32" height="32" xmlns:xlink="http://www.w3.org/1999/xlink"><defs><style type="text/css"></style></defs><path d="M892.6527488 566.6111488h-326.24913067v327.68546133c0 30.1989888-24.3564544 54.61224107-54.3752192 54.61224107-29.999104 0-54.3555584-24.41434453-54.3555584-54.61224107V566.6111488h-326.24913066c-30.0089344 0-54.3653888-24.4711424-54.3653888-54.60350293 0-30.16075947 24.3564544-54.63190187 54.3653888-54.63190187h326.24913066V129.70011307c0-30.14219093 24.3564544-54.60350293 54.3555584-54.60350294 30.02750293 0 54.38395733 24.461312 54.38395734 54.60350294V457.375744h326.23930026c30.05590187 0 54.3555584 24.4711424 54.3555584 54.63190187 0.00218453 30.13236053-24.297472 54.60350293-54.35446613 54.60350293z m0 0" fill="#ffffff" p-id="2917"></path></svg>