<?xml version="1.0" standalone="no"?><!DOCTYPE svg PUBLIC "-//W3C//DTD SVG 1.1//EN" "http://www.w3.org/Graphics/SVG/1.1/DTD/svg11.dtd"><svg t="1599461616129" class="icon" viewBox="0 0 1024 1024" version="1.1" xmlns="http://www.w3.org/2000/svg" p-id="2059" width="24" height="24" xmlns:xlink="http://www.w3.org/1999/xlink"><defs><style type="text/css"></style></defs><path d="M1002.666667 768L512 1002.666667 21.333333 768l267.733334-128L512 746.666667l222.933333-106.666667L1002.666667 768z" fill="#00A6FF" p-id="2060"></path><path d="M734.933333 640L512 746.666667l-222.933333-106.666667L512 533.333333l222.933333 106.666667z" fill="#00C7B1" p-id="2061"></path><path d="M735.146667 384L512 490.666667l-222.933333-106.666667L21.333333 512l267.733334 128L512 533.333333l222.933333 106.666667L1002.666667 512l-267.52-128z" fill="#24F2DC" p-id="2062"></path><path d="M735.146667 384L512 490.666667l-222.933333-106.666667L512 277.333333l223.146667 106.666667z" fill="#FFC247" p-id="2063"></path><path d="M1002.666667 256l-267.52 128L512 277.333333l-222.933333 106.666667L21.333333 256 512 21.333333l490.666667 234.666667z" fill="#FFD747" p-id="2064"></path><path d="M815.082667 189.930667l18.410666-38.506667 50.432 24.106667-18.410666 38.528zM37.333333 752l-5.952-12.437333-19.2 9.194666a21.333333 21.333333 0 0 0 0 38.4l19.2 9.194667 5.952-12.437333 12.458667-5.952L44.970667 768l4.821333-10.048zM72.490667 719.893333l41.109333-19.669333 18.410667 38.506667-41.109334 19.669333zM401.322667 562.581333l41.109333-19.648 18.410667 38.506667-41.109334 19.648zM154.688 680.576l41.109333-19.669333 18.432 38.506666-41.109333 19.669334zM522.048 561.792l18.410667-38.4-19.2-9.194667a21.461333 21.461333 0 0 0-18.432 0l-19.2 9.194667 18.410666 38.4 9.962667-4.821333zM809.813333 699.392l18.389334-38.506667 41.109333 19.648-18.410667 38.506667zM563.157333 581.461333l18.410667-38.506666 41.109333 19.648-18.410666 38.506666zM891.989333 738.730667l18.410667-38.506667 41.109333 19.648-18.410666 38.528zM1011.882667 748.8l-19.2-9.194667-5.952 12.437334-12.458667 5.952 4.821333 10.048-4.821333 10.048 12.458667 5.952 5.952 12.437333 19.2-9.194667a21.333333 21.333333 0 0 0 0-38.4zM809.813333 836.608l41.088-19.648 18.432 38.506667-41.109333 19.669333zM645.354667 915.242667l41.109333-19.669334 18.432 38.506667-41.109333 19.669333zM727.552 875.925333l41.109333-19.669333 18.410667 38.485333-41.088 19.669334zM891.989333 797.248l41.109334-19.669333 18.432 38.506666-41.109334 19.669334zM563.157333 954.56l41.109334-19.669333 18.410666 38.506666-41.109333 19.669334zM512 979.029333l-10.048-4.821333-18.410667 38.4 19.2 9.194667a21.333333 21.333333 0 0 0 18.432 0l19.2-9.194667-18.410666-38.4zM72.490667 816.128l18.410666-38.528 41.109334 19.669333-18.410667 38.506667zM154.666667 855.424l18.432-38.506667 41.109333 19.648-18.410667 38.506667zM236.906667 894.72l18.410666-38.485333 41.109334 19.669333-18.410667 38.485333zM401.322667 973.397333l18.432-38.506666 41.109333 19.648-18.432 38.528zM319.146667 934.058667l18.410666-38.506667 41.109334 19.648-18.410667 38.528zM510.72 300.373333l18.410667-38.528 38.485333 18.410667-18.432 38.506667zM356.714667 327.936l38.528-18.410667 18.410666 38.485334-38.528 18.432zM433.706667 291.114667l38.506666-18.410667 18.410667 38.528-38.485333 18.389333zM587.690667 337.173333L606.122667 298.666667l38.485333 18.410666-18.432 38.485334z" p-id="2065"></path><path d="M1011.882667 492.8L784.490667 384l227.392-108.8a21.333333 21.333333 0 0 0 0-38.4l-85.333334-40.810667-18.432 38.4L953.237333 256l-239.68 114.624 8-16.725333-38.4-18.389334-18.432 38.4 20.928 10.005334L512 467.029333l-176.384-84.352-17.365333-36.266666-29.290667 13.994666L70.762667 256 512 44.970667 770.496 168.533333l18.410667-38.4-267.690667-128a21.461333 21.461333 0 0 0-18.432 0l-490.666667 234.666667a21.333333 21.333333 0 0 0 0 38.4L239.509333 384l-48.96 23.466667 18.517334 38.4 80-38.250667L502.784 509.866667a21.333333 21.333333 0 0 0 18.432 0l213.824-102.250667L953.237333 512 686.933333 639.338667l17.898667-37.418667-41.109333-19.648-18.410667 38.4 40.213333 19.2L512 723.029333 338.432 640l40.213333-19.2-18.410666-38.4-41.109334 19.648 17.898667 37.418667L70.762667 512l93.610666-44.8-18.410666-38.4-133.845334 64a21.333333 21.333333 0 0 0 0 38.4l227.413334 108.8-2.624 1.258667 18.432 38.4 33.621333-16.085334L502.784 765.866667a21.333333 21.333333 0 0 0 18.432 0l213.824-102.272 33.642667 16.106666 18.432-38.4-2.645334-1.301333 227.413334-108.8a21.333333 21.333333 0 0 0 0-38.4z" p-id="2066"></path></svg>