<?xml version="1.0" standalone="no"?><!DOCTYPE svg PUBLIC "-//W3C//DTD SVG 1.1//EN" "http://www.w3.org/Graphics/SVG/1.1/DTD/svg11.dtd"><svg t="1598500205313" class="icon" viewBox="0 0 1024 1024" version="1.1" xmlns="http://www.w3.org/2000/svg" p-id="10677" width="32" height="32" xmlns:xlink="http://www.w3.org/1999/xlink"><defs><style type="text/css"></style></defs><path d="M334.224 391.424c0-95.952 79.728-173.968 177.776-173.968 98.048 0 177.776 78.016 177.776 173.968 0 95.936-79.728 173.968-177.776 173.968-98.048 0-177.776-78.032-177.776-173.968M512.448 0h-0.896C291.232 0.224 112 175.744 112 391.424c0 109.424 88.928 265.024 176 391.424a2759.648 2759.648 0 0 0 161.824 211.44A81.104 81.104 0 0 0 512.048 1024h0.128a80.512 80.512 0 0 0 61.824-29.488A2756.736 2756.736 0 0 0 736 782.832c87.072-126.384 176-281.984 176-391.408C912 175.744 732.752 0.224 512.448 0" p-id="10678"></path></svg>