<?xml version="1.0" standalone="no"?><!DOCTYPE svg PUBLIC "-//W3C//DTD SVG 1.1//EN" "http://www.w3.org/Graphics/SVG/1.1/DTD/svg11.dtd"><svg t="1599796068368" class="icon" viewBox="0 0 1024 1024" version="1.1" xmlns="http://www.w3.org/2000/svg" p-id="2150" width="32" height="32" xmlns:xlink="http://www.w3.org/1999/xlink"><defs><style type="text/css"></style></defs><path d="M510.546394 62.365396c-163.902954 0-295.097972 131.196041-295.097972 295.097972 0 117.991298 84.919065 209.81768 176.7434 327.803861 31.978319 44.824905 57.421804 89.64367 89.76135 146.579403 1.700735 3.028986 3.87833 5.816472 6.421246 8.115841 5.454222 4.968152 11.751648 9.207709 22.171975 9.207709l0 0c11.139711 0 17.559934-4.724605 23.25668-10.174734 1.934049-1.817392 3.634784-3.999081 5.087878-6.180769 32.344662-51.121308 57.907874-96.058776 90.010013-141.007501 91.824335-124.531248 176.7434-216.352513 176.7434-334.343811C805.643342 193.560414 674.448324 62.365396 510.546394 62.365396L510.546394 62.365396 510.546394 62.365396zM510.546394 455.82663c-52.455699 0-98.369402-39.370683-98.369402-98.363262 0-58.994626 39.375799-98.369402 98.369402-98.369402 52.453652 0 98.363262 39.375799 98.363262 98.369402C608.909655 409.91702 569.538973 455.82663 510.546394 455.82663L510.546394 455.82663 510.546394 455.82663zM510.546394 455.82663" p-id="2151" fill="#ffffff"></path><path d="M510.546394 725.610052c-136.888693 0-247.854994 52.211129-247.854994 116.533087 0 64.330144 110.966301 116.541273 247.854994 116.541273 136.886647 0 247.852948-52.210106 247.852948-116.541273C758.399341 777.822205 647.432017 725.610052 510.546394 725.610052L510.546394 725.610052zM510.546394 889.511983c-102.97121 0-186.312336-36.58422-186.312336-76.8022 0-40.220027 83.460854-73.049736 186.312336-73.049736 102.845343 0 186.31029 32.706913 186.31029 73.049736C696.856683 853.046466 613.391736 889.511983 510.546394 889.511983L510.546394 889.511983zM510.546394 889.511983" p-id="2152" fill="#ffffff"></path></svg>